<!--?xml version="1.0" encoding="UTF-8"?-->
<svg xmlns="http://www.w3.org/2000/svg" viewBox="0 0 560 160" width="560" height="160" role="img" aria-labelledby="title desc">
  <title id="title">LluvAI logo</title>
  <desc id="desc">Logo: stylized cloud with paintbrush stroke and text "LluvAI".</desc>

  <!-- Gradient for cloud -->
  <defs>
    <linearGradient id="g1" x1="0" x2="1" y1="0" y2="1">
      <stop offset="0" stop-color="#5EE7DF"></stop>
      <stop offset="0.5" stop-color="#7C7BFF"></stop>
      <stop offset="1" stop-color="#C084FC"></stop>
    </linearGradient>

    <!-- small gloss -->
    <linearGradient id="g_gloss" x1="0" x2="0" y1="0" y2="1">
      <stop offset="0" stop-color="#ffffff" stop-opacity="0.35"></stop>
      <stop offset="1" stop-color="#ffffff" stop-opacity="0"></stop>
    </linearGradient>

    <!-- shadow -->
    <filter id="fShadow" x="-50%" y="-50%" width="200%" height="200%">
      <feDropShadow dx="0" dy="6" stdDeviation="10" flood-color="#2b2b2b" flood-opacity="0.12"></feDropShadow>
    </filter>

    <!-- brush stroke pattern (slight texture) -->
    <linearGradient id="brushGrad" x1="0" x2="1">
      <stop offset="0" stop-color="#FFB77A"></stop>
      <stop offset="1" stop-color="#FF6B9A"></stop>
    </linearGradient>
  </defs>

  <!-- Cloud + paintbrush group -->
  <g transform="translate(28,18)" filter="url(#fShadow)">
    <!-- cloud base -->
    <path d="M120 42
             c-4-28 -40-34 -60-14
             c-10-28 -50-30 -72-6
             c-28 28 -12 78 38 72
             h150
             c28 0 48-24 44-52
             c-6-28-34-44-90-20z" fill="url(#g1)"></path>

    <!-- gloss highlight -->
    <path d="M40 38
             c18-18 46-14 62 2
             c12 12 24 16 52 12
             c-30 18-82 20-116-26z" fill="url(#g_gloss)" opacity="0.6"></path>

    <!-- paintbrush body -->
    <g transform="translate(120,72) rotate(18)">
      <rect x="-6" y="-2" width="86" height="12" rx="6" ry="6" fill="url(#brushGrad)"></rect>
      <!-- ferrule -->
      <rect x="70" y="-4" width="14" height="20" rx="4" ry="4" fill="#6B7280"></rect>
      <!-- bristles -->
      <path d="M86 6 q6 -2 8 -10 q2 8 -6 12 q-6 2 -10 0z" fill="#1F2937"></path>
      <!-- small spark (pixels) -->
      <g transform="translate(64,-6)">
        <rect x="0" y="0" width="6" height="6" rx="1" ry="1" fill="#fff"></rect>
        <rect x="10" y="-6" width="4" height="4" rx="0.8" ry="0.8" fill="#fff" opacity="0.85"></rect>
        <rect x="-8" y="-4" width="3" height="3" rx="0.6" ry="0.6" fill="#fff" opacity="0.8"></rect>
      </g>
    </g>
  </g>

  <!-- Brand text -->
  <g transform="translate(230,98)">
   

  
  </g>

</svg>
