<svg xmlns="http://www.w3.org/2000/svg" xmlns:xlink="http://www.w3.org/1999/xlink" width="500" zoomAndPan="magnify" viewBox="0 0 375 374.999991" height="500" preserveAspectRatio="xMidYMid meet" version="1.0"><defs><clipPath id="fbf272f6bf"><path d="M 28.125 96 L 344 96 L 344 278.933594 L 28.125 278.933594 Z M 28.125 96 " clip-rule="nonzero"/></clipPath></defs><g clip-path="url(#fbf272f6bf)"><path fill="#5170ff" d="M 342.308594 191.851562 C 339.441406 175.335938 323.328125 165.882812 308.460938 162.476562 C 305.152344 161.71875 301.90625 161.261719 298.882812 161.09375 C 297.289062 161 295.753906 160.996094 294.304688 161.058594 C 292.023438 152.546875 286.886719 145.054688 279.871094 139.457031 C 277.382812 137.457031 274.652344 135.707031 271.722656 134.234375 C 265.078125 130.882812 257.429688 128.976562 249.28125 128.976562 C 248.917969 128.976562 248.550781 128.996094 248.183594 129.003906 C 243.613281 110.140625 225.097656 96.023438 202.9375 96.023438 C 191.367188 96.023438 180.789062 99.878906 172.667969 106.242188 C 170.113281 108.246094 167.800781 110.5 165.785156 112.964844 C 162.855469 116.523438 160.53125 120.523438 158.957031 124.828125 C 151.457031 120.089844 142.347656 117.300781 132.523438 117.300781 C 107.398438 117.300781 86.949219 135.449219 86.199219 158.09375 C 86.183594 158.519531 86.175781 158.945312 86.175781 159.375 C 85.539062 159.222656 84.890625 159.085938 84.238281 158.964844 L 84.230469 158.964844 C 81.082031 158.34375 77.820312 158.023438 74.46875 158.023438 C 70.667969 158.023438 66.96875 158.441406 63.4375 159.222656 L 63.429688 159.222656 C 60.613281 159.84375 57.902344 160.707031 55.316406 161.777344 L 55.308594 161.777344 C 44.039062 166.429688 35.191406 175.039062 30.921875 185.65625 L 30.921875 185.664062 C 30.011719 187.925781 29.3125 190.277344 28.835938 192.699219 C 28.367188 195.097656 28.125 197.566406 28.125 200.089844 C 28.125 204.636719 28.921875 209.019531 30.390625 213.121094 L 34.878906 221.960938 C 40.328125 230.082031 48.738281 236.394531 58.746094 239.667969 C 59.601562 239.949219 60.46875 240.207031 61.351562 240.445312 C 61.613281 243.234375 62.167969 245.945312 63 248.550781 C 66.101562 258.351562 73.03125 266.6875 82.226562 272.136719 C 84.636719 273.566406 87.203125 274.792969 89.902344 275.800781 C 95.332031 277.832031 101.28125 278.949219 107.515625 278.949219 C 118.601562 278.949219 128.773438 275.410156 136.75 269.507812 C 136.945312 269.367188 137.140625 269.222656 137.339844 269.070312 C 139.867188 271.003906 142.628906 272.703125 145.582031 274.117188 C 152.023438 277.199219 159.367188 278.949219 167.160156 278.949219 C 175.714844 278.949219 183.722656 276.839844 190.601562 273.167969 C 192.5625 272.121094 194.425781 270.953125 196.1875 269.667969 C 197.496094 270.621094 198.859375 271.515625 200.277344 272.339844 C 207.476562 276.519531 216.035156 278.949219 225.214844 278.949219 C 232.128906 278.949219 239.738281 277.964844 247.113281 276.035156 C 249.375 275.449219 251.609375 274.773438 253.796875 274.011719 C 268.769531 268.804688 281.472656 259.59375 283.332031 246.910156 C 288.246094 247.519531 293.539062 247.308594 298.875 246.332031 C 302.070312 245.75 305.285156 244.894531 308.433594 243.761719 C 328.894531 236.484375 346.863281 218.113281 342.308594 191.851562 Z M 342.308594 191.851562 " fill-opacity="1" fill-rule="nonzero"/></g></svg>