<svg xmlns="http://www.w3.org/2000/svg" xmlns:xlink="http://www.w3.org/1999/xlink" width="500" zoomAndPan="magnify" viewBox="0 0 375 374.999991" height="500" preserveAspectRatio="xMidYMid meet" version="1.0"><defs><g/><clipPath id="e32d36432f"><path d="M 13.898438 137.628906 L 186 137.628906 L 186 237.378906 L 13.898438 237.378906 Z M 13.898438 137.628906 " clip-rule="nonzero"/></clipPath><clipPath id="68e7c2f488"><rect x="0" width="172" y="0" height="60"/></clipPath></defs><g clip-path="url(#e32d36432f)"><path fill="#5170ff" d="M 185.011719 189.871094 C 183.449219 180.875 174.675781 175.726562 166.578125 173.871094 C 164.777344 173.460938 163.007812 173.210938 161.359375 173.117188 C 160.492188 173.066406 159.65625 173.0625 158.867188 173.101562 C 157.625 168.464844 154.828125 164.382812 151.007812 161.332031 C 149.652344 160.246094 148.164062 159.289062 146.570312 158.492188 C 142.953125 156.664062 138.785156 155.625 134.347656 155.625 C 134.148438 155.625 133.949219 155.636719 133.75 155.640625 C 131.257812 145.367188 121.175781 137.679688 109.105469 137.679688 C 102.804688 137.679688 97.042969 139.777344 92.621094 143.242188 C 91.230469 144.335938 89.972656 145.5625 88.871094 146.90625 C 87.277344 148.84375 86.011719 151.023438 85.152344 153.367188 C 81.066406 150.785156 76.109375 149.269531 70.757812 149.269531 C 57.070312 149.269531 45.933594 159.152344 45.527344 171.484375 C 45.519531 171.714844 45.515625 171.945312 45.515625 172.183594 C 45.167969 172.101562 44.816406 172.027344 44.457031 171.957031 C 42.738281 171.621094 40.964844 171.445312 39.140625 171.445312 C 37.070312 171.445312 35.054688 171.671875 33.128906 172.101562 L 33.125 172.101562 C 31.59375 172.4375 30.117188 172.90625 28.707031 173.492188 L 28.703125 173.492188 C 22.566406 176.023438 17.746094 180.714844 15.421875 186.496094 L 15.421875 186.5 C 14.925781 187.730469 14.546875 189.011719 14.285156 190.332031 C 14.03125 191.636719 13.898438 192.984375 13.898438 194.355469 C 13.898438 196.832031 14.332031 199.21875 15.132812 201.453125 L 17.578125 206.269531 C 20.542969 210.691406 25.125 214.128906 30.574219 215.910156 C 31.042969 216.066406 31.515625 216.207031 31.996094 216.335938 C 32.136719 217.855469 32.4375 219.332031 32.890625 220.75 C 34.582031 226.085938 38.355469 230.628906 43.363281 233.59375 C 44.675781 234.375 46.074219 235.042969 47.542969 235.589844 C 50.5 236.699219 53.742188 237.304688 57.136719 237.304688 C 63.175781 237.304688 68.714844 235.378906 73.058594 232.164062 C 73.164062 232.085938 73.273438 232.007812 73.378906 231.925781 C 74.757812 232.980469 76.261719 233.90625 77.871094 234.671875 C 81.378906 236.351562 85.378906 237.304688 89.621094 237.304688 C 94.28125 237.304688 98.640625 236.15625 102.386719 234.15625 C 103.457031 233.589844 104.46875 232.953125 105.429688 232.25 C 106.144531 232.769531 106.886719 233.257812 107.660156 233.707031 C 111.578125 235.984375 116.242188 237.304688 121.238281 237.304688 C 125.003906 237.304688 129.148438 236.769531 133.167969 235.71875 C 134.398438 235.398438 135.613281 235.03125 136.808594 234.617188 C 144.960938 231.78125 151.878906 226.765625 152.894531 219.859375 C 155.570312 220.1875 158.449219 220.074219 161.359375 219.539062 C 163.097656 219.222656 164.847656 218.757812 166.5625 218.140625 C 177.707031 214.179688 187.492188 204.171875 185.011719 189.871094 Z M 185.011719 189.871094 " fill-opacity="1" fill-rule="nonzero"/></g><g transform="matrix(1, 0, 0, 1, 197, 157)"><g clip-path="url(#68e7c2f488)"><g fill="#020c45" fill-opacity="1"><g transform="translate(0.0569105, 45.759545)"><g><path d="M 15.171875 -33.078125 C 15.296875 -33.109375 15.425781 -33.066406 15.5625 -32.953125 C 15.707031 -32.847656 15.859375 -32.734375 16.015625 -32.609375 C 15.828125 -28.035156 15.734375 -23.457031 15.734375 -18.875 C 15.734375 -14.289062 15.890625 -9.703125 16.203125 -5.109375 L 19.328125 -5.109375 C 19.828125 -5.109375 20.320312 -5.113281 20.8125 -5.125 C 21.300781 -5.144531 21.796875 -5.171875 22.296875 -5.203125 C 23.085938 -5.265625 23.863281 -5.265625 24.625 -5.203125 C 25.15625 -5.171875 25.679688 -5.203125 26.203125 -5.296875 C 26.722656 -5.390625 27.234375 -5.40625 27.734375 -5.34375 C 28.015625 -5.3125 28.304688 -5.300781 28.609375 -5.3125 C 28.910156 -5.332031 29.203125 -5.359375 29.484375 -5.390625 C 29.828125 -5.453125 30.0625 -5.34375 30.1875 -5.0625 L 30.140625 -3.125 C 30.078125 -2.582031 30.082031 -2.066406 30.15625 -1.578125 C 30.238281 -1.085938 30.09375 -0.65625 29.71875 -0.28125 C 29.40625 -0.125 29.085938 -0.078125 28.765625 -0.140625 C 28.453125 -0.203125 28.125 -0.21875 27.78125 -0.1875 C 27 -0.15625 26.1875 -0.15625 25.34375 -0.1875 C 24.507812 -0.21875 23.6875 -0.203125 22.875 -0.140625 C 21.707031 -0.109375 20.546875 -0.0976562 19.390625 -0.109375 C 18.242188 -0.128906 17.085938 -0.109375 15.921875 -0.046875 C 14.785156 -0.015625 13.648438 -0.00390625 12.515625 -0.015625 C 11.378906 -0.0351562 10.25 -0.015625 9.125 0.046875 C 8.238281 0.109375 7.332031 0.128906 6.40625 0.109375 C 5.476562 0.0976562 4.554688 0.09375 3.640625 0.09375 C 3.328125 -0.28125 3.171875 -0.691406 3.171875 -1.140625 C 3.171875 -2.140625 3.1875 -3.148438 3.21875 -4.171875 C 3.25 -5.203125 3.21875 -6.207031 3.125 -7.1875 C 3.0625 -7.9375 3.050781 -8.6875 3.09375 -9.4375 C 3.144531 -10.195312 3.125 -10.957031 3.03125 -11.71875 C 3 -12.40625 2.984375 -13.097656 2.984375 -13.796875 C 2.984375 -14.492188 2.960938 -15.1875 2.921875 -15.875 C 2.921875 -16.976562 2.960938 -18.070312 3.046875 -19.15625 C 3.128906 -20.25 3.125 -21.328125 3.03125 -22.390625 C 2.957031 -23.023438 2.910156 -23.65625 2.890625 -24.28125 C 2.878906 -24.914062 2.859375 -25.53125 2.828125 -26.125 C 2.828125 -26.507812 2.867188 -26.878906 2.953125 -27.234375 C 3.035156 -27.597656 3.0625 -27.953125 3.03125 -28.296875 C 3.03125 -28.710938 3.003906 -29.25 2.953125 -29.90625 C 2.898438 -30.570312 2.875 -31.1875 2.875 -31.75 C 2.875 -32.320312 2.941406 -32.65625 3.078125 -32.75 C 3.328125 -32.84375 3.582031 -32.878906 3.84375 -32.859375 C 4.113281 -32.847656 4.375 -32.84375 4.625 -32.84375 C 5.320312 -32.78125 6 -32.769531 6.65625 -32.8125 C 7.320312 -32.863281 7.984375 -32.875 8.640625 -32.84375 C 9.367188 -32.84375 10.101562 -32.863281 10.84375 -32.90625 C 11.582031 -32.957031 12.300781 -33.015625 13 -33.078125 C 13.34375 -33.140625 13.691406 -33.140625 14.046875 -33.078125 C 14.410156 -33.015625 14.785156 -33.015625 15.171875 -33.078125 Z M 15.171875 -33.078125 "/></g></g></g><g fill="#020c45" fill-opacity="1"><g transform="translate(30.253184, 45.759545)"><g><path d="M 14.03125 -33.453125 C 14.15625 -33.359375 14.222656 -33.253906 14.234375 -33.140625 C 14.253906 -33.035156 14.265625 -32.9375 14.265625 -32.84375 C 14.265625 -31.832031 14.269531 -30.820312 14.28125 -29.8125 C 14.300781 -28.800781 14.3125 -27.796875 14.3125 -26.796875 C 14.34375 -24.335938 14.332031 -21.925781 14.28125 -19.5625 C 14.238281 -17.195312 14.25 -14.785156 14.3125 -12.328125 C 14.34375 -11.828125 14.359375 -11.316406 14.359375 -10.796875 C 14.359375 -10.273438 14.375 -9.75 14.40625 -9.21875 C 14.4375 -8.675781 14.484375 -8.144531 14.546875 -7.625 C 14.609375 -7.101562 14.753906 -6.59375 14.984375 -6.09375 C 15.171875 -5.65625 15.546875 -5.359375 16.109375 -5.203125 C 16.898438 -4.972656 17.71875 -4.957031 18.5625 -5.15625 C 18.882812 -5.21875 19.144531 -5.269531 19.34375 -5.3125 C 19.550781 -5.363281 19.71875 -5.328125 19.84375 -5.203125 C 19.875 -4.535156 19.894531 -3.816406 19.90625 -3.046875 C 19.925781 -2.273438 19.90625 -1.554688 19.84375 -0.890625 C 19.625 -0.578125 19.304688 -0.332031 18.890625 -0.15625 C 18.484375 0.0078125 18.078125 0.125 17.671875 0.1875 C 16.566406 0.40625 15.476562 0.546875 14.40625 0.609375 C 13.34375 0.671875 12.242188 0.65625 11.109375 0.5625 C 10.316406 0.5 9.570312 0.347656 8.875 0.109375 C 8.1875 -0.117188 7.507812 -0.40625 6.84375 -0.75 C 5.875 -1.289062 5.097656 -1.976562 4.515625 -2.8125 C 3.929688 -3.644531 3.5 -4.582031 3.21875 -5.625 C 3.0625 -6.28125 2.984375 -6.9375 2.984375 -7.59375 C 2.984375 -8.257812 2.960938 -8.925781 2.921875 -9.59375 C 2.921875 -10.757812 2.9375 -11.859375 2.96875 -12.890625 C 3.007812 -13.929688 2.992188 -15.019531 2.921875 -16.15625 C 2.828125 -17.664062 2.820312 -19.171875 2.90625 -20.671875 C 2.988281 -22.171875 2.992188 -23.675781 2.921875 -25.1875 C 2.890625 -26.09375 2.863281 -26.992188 2.84375 -27.890625 C 2.832031 -28.796875 2.828125 -29.691406 2.828125 -30.578125 C 2.796875 -31.015625 2.796875 -31.453125 2.828125 -31.890625 C 2.859375 -32.335938 2.890625 -32.75 2.921875 -33.125 C 3.179688 -33.375 3.503906 -33.488281 3.890625 -33.46875 C 4.285156 -33.457031 4.644531 -33.453125 4.96875 -33.453125 C 5.875 -33.453125 6.785156 -33.425781 7.703125 -33.375 C 8.617188 -33.332031 9.515625 -33.34375 10.390625 -33.40625 C 11.023438 -33.4375 11.640625 -33.46875 12.234375 -33.5 C 12.835938 -33.53125 13.4375 -33.515625 14.03125 -33.453125 Z M 14.03125 -33.453125 "/></g></g></g><g fill="#020c45" fill-opacity="1"><g transform="translate(49.249914, 45.759545)"><g><path d="M 30.46875 -24.859375 C 30.726562 -24.921875 30.988281 -24.9375 31.25 -24.90625 C 31.519531 -24.875 31.78125 -24.710938 32.03125 -24.421875 C 31.96875 -20.515625 31.984375 -16.5 32.078125 -12.375 C 32.171875 -8.25 32.28125 -4.171875 32.40625 -0.140625 C 31.25 -0.046875 30.03125 0 28.75 0 C 27.476562 0 26.289062 0.078125 25.1875 0.234375 C 24.644531 -0.296875 24.238281 -0.867188 23.96875 -1.484375 C 23.707031 -2.097656 23.242188 -2.578125 22.578125 -2.921875 C 22.203125 -2.546875 21.894531 -2.25 21.65625 -2.03125 C 21.425781 -1.8125 21.070312 -1.5625 20.59375 -1.28125 C 19.59375 -0.644531 18.601562 -0.15625 17.625 0.1875 C 16.644531 0.53125 15.539062 0.640625 14.3125 0.515625 C 13.71875 0.453125 13.128906 0.40625 12.546875 0.375 C 11.960938 0.34375 11.367188 0.296875 10.765625 0.234375 C 9.515625 0.078125 8.375 -0.296875 7.34375 -0.890625 C 6.320312 -1.492188 5.382812 -2.269531 4.53125 -3.21875 C 3.96875 -3.84375 3.582031 -4.5 3.375 -5.1875 C 3.175781 -5.882812 3.046875 -6.597656 2.984375 -7.328125 C 2.941406 -8.140625 2.910156 -8.957031 2.890625 -9.78125 C 2.878906 -10.601562 2.859375 -11.40625 2.828125 -12.1875 C 2.796875 -13.882812 2.820312 -15.578125 2.90625 -17.265625 C 2.988281 -18.953125 2.992188 -20.644531 2.921875 -22.34375 C 2.921875 -22.695312 2.929688 -23.0625 2.953125 -23.4375 C 2.972656 -23.8125 3.046875 -24.171875 3.171875 -24.515625 C 3.328125 -24.546875 3.773438 -24.578125 4.515625 -24.609375 C 5.253906 -24.648438 6.125 -24.671875 7.125 -24.671875 C 8.132812 -24.671875 9.132812 -24.648438 10.125 -24.609375 C 11.125 -24.578125 11.984375 -24.546875 12.703125 -24.515625 C 13.429688 -24.484375 13.859375 -24.4375 13.984375 -24.375 C 14.046875 -23.96875 14.078125 -23.523438 14.078125 -23.046875 C 14.078125 -22.578125 14.078125 -22.125 14.078125 -21.6875 C 14.078125 -19.863281 14.082031 -18.035156 14.09375 -16.203125 C 14.113281 -14.378906 14.109375 -12.535156 14.078125 -10.671875 C 14.078125 -9.953125 14.160156 -9.257812 14.328125 -8.59375 C 14.503906 -7.9375 14.800781 -7.289062 15.21875 -6.65625 C 15.5625 -6.125 16.109375 -5.679688 16.859375 -5.328125 C 17.617188 -4.984375 18.363281 -5.019531 19.09375 -5.4375 C 19.84375 -5.875 20.328125 -6.328125 20.546875 -6.796875 C 20.773438 -7.273438 20.859375 -7.972656 20.796875 -8.890625 C 20.765625 -9.921875 20.753906 -11.023438 20.765625 -12.203125 C 20.785156 -13.390625 20.828125 -14.503906 20.890625 -15.546875 C 20.953125 -16.523438 20.96875 -17.492188 20.9375 -18.453125 C 20.90625 -19.410156 20.859375 -20.378906 20.796875 -21.359375 C 20.765625 -21.765625 20.738281 -22.15625 20.71875 -22.53125 C 20.707031 -22.914062 20.71875 -23.3125 20.75 -23.71875 C 20.75 -24.0625 20.800781 -24.296875 20.90625 -24.421875 C 21.019531 -24.554688 21.28125 -24.625 21.6875 -24.625 C 22.851562 -24.65625 24.019531 -24.675781 25.1875 -24.6875 C 26.351562 -24.707031 27.519531 -24.71875 28.6875 -24.71875 C 28.96875 -24.75 29.253906 -24.769531 29.546875 -24.78125 C 29.847656 -24.800781 30.15625 -24.828125 30.46875 -24.859375 Z M 30.46875 -24.859375 "/></g></g></g><g fill="#020c45" fill-opacity="1"><g transform="translate(84.029969, 45.759545)"><g><path d="M 30.09375 -25.140625 C 30.382812 -25.109375 30.703125 -25.078125 31.046875 -25.046875 C 31.390625 -25.015625 31.703125 -24.90625 31.984375 -24.71875 L 31.984375 -21.21875 C 31.953125 -21.125 31.9375 -21.003906 31.9375 -20.859375 C 31.9375 -20.710938 31.90625 -20.59375 31.84375 -20.5 C 31.8125 -20.46875 31.738281 -20.453125 31.625 -20.453125 C 31.519531 -20.453125 31.453125 -20.453125 31.421875 -20.453125 C 30.722656 -20.617188 30.109375 -20.476562 29.578125 -20.03125 C 29.046875 -19.59375 28.679688 -19.101562 28.484375 -18.5625 C 27.984375 -17.300781 27.472656 -15.96875 26.953125 -14.5625 C 26.429688 -13.164062 25.90625 -11.820312 25.375 -10.53125 C 24.96875 -9.46875 24.539062 -8.414062 24.09375 -7.375 C 23.65625 -6.332031 23.21875 -5.273438 22.78125 -4.203125 C 22.550781 -3.671875 22.332031 -3.144531 22.125 -2.625 C 21.925781 -2.101562 21.734375 -1.5625 21.546875 -1 C 21.390625 -0.644531 21.171875 -0.296875 20.890625 0.046875 C 20.378906 0.140625 19.851562 0.175781 19.3125 0.15625 C 18.78125 0.144531 18.25 0.140625 17.71875 0.140625 C 17.15625 0.140625 16.585938 0.15625 16.015625 0.1875 C 15.453125 0.21875 14.898438 0.21875 14.359375 0.1875 C 14.046875 0.15625 13.71875 0.144531 13.375 0.15625 C 13.03125 0.175781 12.710938 0.09375 12.421875 -0.09375 C 11.734375 -1.507812 11.035156 -2.894531 10.328125 -4.25 C 9.617188 -5.601562 8.914062 -6.988281 8.21875 -8.40625 C 7.175781 -10.675781 6.148438 -12.941406 5.140625 -15.203125 C 4.140625 -17.472656 3.054688 -19.710938 1.890625 -21.921875 L 1.234375 -23.296875 C 1.140625 -23.453125 1.054688 -23.65625 0.984375 -23.90625 C 0.921875 -24.15625 0.90625 -24.394531 0.9375 -24.625 C 1.039062 -24.6875 1.484375 -24.734375 2.265625 -24.765625 C 3.054688 -24.796875 4.007812 -24.816406 5.125 -24.828125 C 6.238281 -24.847656 7.351562 -24.863281 8.46875 -24.875 C 9.59375 -24.894531 10.554688 -24.894531 11.359375 -24.875 C 12.160156 -24.863281 12.625 -24.84375 12.75 -24.8125 C 14.039062 -22.289062 15.179688 -19.710938 16.171875 -17.078125 C 17.171875 -14.453125 18.347656 -11.847656 19.703125 -9.265625 L 21.03125 -12.375 C 21.5625 -13.695312 22.101562 -15.007812 22.65625 -16.3125 C 23.207031 -17.625 23.75 -18.941406 24.28125 -20.265625 C 24.46875 -20.710938 24.679688 -21.203125 24.921875 -21.734375 C 25.160156 -22.265625 25.421875 -22.738281 25.703125 -23.15625 C 26.234375 -23.96875 26.878906 -24.515625 27.640625 -24.796875 C 28.398438 -25.085938 29.21875 -25.203125 30.09375 -25.140625 Z M 30.09375 -25.140625 "/></g></g></g><g fill="#020c45" fill-opacity="1"><g transform="translate(116.825305, 45.759545)"><g><path d="M 22.875 -33.453125 C 22.96875 -33.453125 23.066406 -33.425781 23.171875 -33.375 C 23.285156 -33.332031 23.359375 -33.296875 23.390625 -33.265625 C 25.722656 -27.878906 27.863281 -22.4375 29.8125 -16.9375 C 31.769531 -11.4375 33.878906 -6.007812 36.140625 -0.65625 C 35.984375 -0.34375 35.78125 -0.207031 35.53125 -0.25 C 35.28125 -0.300781 35.046875 -0.296875 34.828125 -0.234375 C 34.128906 -0.109375 33.441406 -0.0664062 32.765625 -0.109375 C 32.085938 -0.160156 31.40625 -0.15625 30.71875 -0.09375 C 28.539062 0.03125 26.363281 0.078125 24.1875 0.046875 C 24.03125 0.015625 23.859375 0.0351562 23.671875 0.109375 C 23.484375 0.191406 23.28125 0.1875 23.0625 0.09375 C 22.707031 -0.976562 22.316406 -2.039062 21.890625 -3.09375 C 21.472656 -4.144531 21.078125 -5.207031 20.703125 -6.28125 C 18.648438 -6.46875 16.609375 -6.488281 14.578125 -6.34375 C 12.546875 -6.207031 10.503906 -6.203125 8.453125 -6.328125 C 8.234375 -5.734375 8.015625 -5.160156 7.796875 -4.609375 C 7.578125 -4.054688 7.34375 -3.515625 7.09375 -2.984375 C 6.863281 -2.472656 6.671875 -1.957031 6.515625 -1.4375 C 6.359375 -0.914062 6.15625 -0.46875 5.90625 -0.09375 C 5.082031 -0.125 4.300781 -0.125 3.5625 -0.09375 C 2.820312 -0.0625 2.09375 -0.03125 1.375 0 C 1.28125 -0.15625 1.21875 -0.316406 1.1875 -0.484375 C 1.15625 -0.660156 1.1875 -0.878906 1.28125 -1.140625 C 1.53125 -1.734375 1.785156 -2.320312 2.046875 -2.90625 C 2.316406 -3.488281 2.546875 -4.078125 2.734375 -4.671875 C 2.960938 -5.304688 3.191406 -5.953125 3.421875 -6.609375 C 3.660156 -7.273438 3.9375 -7.90625 4.25 -8.5 C 4.46875 -8.945312 4.648438 -9.390625 4.796875 -9.828125 C 4.941406 -10.265625 5.109375 -10.707031 5.296875 -11.15625 C 5.671875 -12.0625 6.046875 -12.960938 6.421875 -13.859375 C 6.804688 -14.765625 7.203125 -15.65625 7.609375 -16.53125 C 7.796875 -16.945312 7.953125 -17.378906 8.078125 -17.828125 C 8.203125 -18.285156 8.359375 -18.722656 8.546875 -19.140625 C 8.804688 -19.765625 9.019531 -20.421875 9.1875 -21.109375 C 9.363281 -21.804688 9.609375 -22.457031 9.921875 -23.0625 C 10.359375 -23.90625 10.71875 -24.773438 11 -25.671875 C 11.289062 -26.578125 11.625 -27.46875 12 -28.34375 C 12.34375 -29.164062 12.65625 -29.992188 12.9375 -30.828125 C 13.226562 -31.660156 13.5625 -32.503906 13.9375 -33.359375 C 14.1875 -33.390625 14.4375 -33.421875 14.6875 -33.453125 C 14.945312 -33.484375 15.203125 -33.484375 15.453125 -33.453125 C 16.046875 -33.390625 16.625 -33.359375 17.1875 -33.359375 C 17.757812 -33.359375 18.347656 -33.359375 18.953125 -33.359375 C 19.578125 -33.359375 20.21875 -33.375 20.875 -33.40625 C 21.539062 -33.4375 22.207031 -33.453125 22.875 -33.453125 Z M 14.84375 -22.828125 C 13.925781 -20.898438 13.132812 -18.925781 12.46875 -16.90625 C 11.8125 -14.894531 11.070312 -12.914062 10.25 -10.96875 C 11.695312 -10.863281 13.144531 -10.84375 14.59375 -10.90625 C 16.050781 -10.976562 17.519531 -11.03125 19 -11.0625 C 18.269531 -13.007812 17.570312 -14.972656 16.90625 -16.953125 C 16.25 -18.941406 15.5625 -20.898438 14.84375 -22.828125 Z M 14.84375 -22.828125 "/></g></g></g><g fill="#020c45" fill-opacity="1"><g transform="translate(154.251683, 45.759545)"><g><path d="M 6.421875 -34.5 C 7.242188 -34.75 8.054688 -34.890625 8.859375 -34.921875 C 9.660156 -34.953125 10.472656 -34.789062 11.296875 -34.4375 C 11.796875 -34.25 12.242188 -34.003906 12.640625 -33.703125 C 13.035156 -33.410156 13.390625 -33.09375 13.703125 -32.75 C 14.109375 -32.300781 14.316406 -31.707031 14.328125 -30.96875 C 14.347656 -30.226562 14.25 -29.640625 14.03125 -29.203125 C 13.53125 -28.222656 12.882812 -27.535156 12.09375 -27.140625 C 11.3125 -26.742188 10.429688 -26.515625 9.453125 -26.453125 C 9.109375 -26.421875 8.753906 -26.421875 8.390625 -26.453125 C 8.023438 -26.484375 7.65625 -26.5 7.28125 -26.5 C 6.207031 -26.570312 5.269531 -26.890625 4.46875 -27.453125 C 3.664062 -28.015625 3.171875 -28.925781 2.984375 -30.1875 C 2.910156 -30.445312 2.898438 -30.71875 2.953125 -31 C 3.003906 -31.28125 3.078125 -31.5625 3.171875 -31.84375 C 3.453125 -32.632812 3.882812 -33.21875 4.46875 -33.59375 C 5.050781 -33.96875 5.703125 -34.269531 6.421875 -34.5 Z M 13.9375 -24.90625 C 14.125 -24.644531 14.238281 -24.390625 14.28125 -24.140625 C 14.332031 -23.890625 14.34375 -23.640625 14.3125 -23.390625 C 14.3125 -22.378906 14.296875 -21.304688 14.265625 -20.171875 C 14.234375 -19.035156 14.21875 -17.96875 14.21875 -16.96875 C 14.21875 -15.800781 14.21875 -14.640625 14.21875 -13.484375 C 14.21875 -12.335938 14.234375 -11.179688 14.265625 -10.015625 C 14.265625 -8.878906 14.25 -7.753906 14.21875 -6.640625 C 14.1875 -5.523438 14.171875 -4.382812 14.171875 -3.21875 C 14.140625 -2.894531 14.140625 -2.578125 14.171875 -2.265625 C 14.203125 -1.953125 14.234375 -1.625 14.265625 -1.28125 C 14.296875 -1.09375 14.300781 -0.898438 14.28125 -0.703125 C 14.269531 -0.515625 14.15625 -0.3125 13.9375 -0.09375 C 12.144531 -0.03125 10.34375 0 8.53125 0 C 6.71875 0 4.898438 -0.015625 3.078125 -0.046875 C 3.015625 -0.515625 2.988281 -0.960938 3 -1.390625 C 3.019531 -1.816406 3.03125 -2.234375 3.03125 -2.640625 C 3.0625 -3.929688 3.039062 -5.207031 2.96875 -6.46875 C 2.90625 -7.726562 2.859375 -8.988281 2.828125 -10.25 C 2.828125 -11.226562 2.859375 -12.1875 2.921875 -13.125 C 2.992188 -14.070312 3.03125 -15.019531 3.03125 -15.96875 C 3.03125 -16.914062 3.035156 -17.820312 3.046875 -18.6875 C 3.066406 -19.550781 3.023438 -20.472656 2.921875 -21.453125 C 2.890625 -21.796875 2.875 -22.195312 2.875 -22.65625 C 2.875 -23.113281 2.859375 -23.515625 2.828125 -23.859375 C 2.828125 -24.015625 2.851562 -24.160156 2.90625 -24.296875 C 2.957031 -24.441406 3.0625 -24.597656 3.21875 -24.765625 C 4.851562 -24.890625 6.597656 -24.9375 8.453125 -24.90625 C 10.316406 -24.875 12.144531 -24.875 13.9375 -24.90625 Z M 13.9375 -24.90625 "/></g></g></g></g></g></svg>